<mxfile host="app.diagrams.net" modified="2021-08-02T10:47:11.014Z" agent="5.0 (Macintosh; Intel Mac OS X 10_15_7) AppleWebKit/537.36 (KHTML, like Gecko) Chrome/92.0.4515.107 Safari/537.36" etag="5ien8WeZvf-i2F5Ksd8y" version="14.9.3" type="github" pages="2">
  <diagram name="Page-1" id="12e1b939-464a-85fe-373e-61e167be1490">
    <mxGraphModel dx="1399" dy="771" grid="1" gridSize="10" guides="1" tooltips="1" connect="1" arrows="1" fold="1" page="1" pageScale="1.5" pageWidth="1169" pageHeight="826" math="0" shadow="0">
      <root>
        <mxCell id="0" />
        <mxCell id="1" parent="0" />
        <mxCell id="JvyRWAL5f1hGU-I-xfa8-2" value="" style="whiteSpace=wrap;html=1;rounded=1;" parent="1" vertex="1">
          <mxGeometry x="220" y="290" width="1330" height="680" as="geometry" />
        </mxCell>
        <mxCell id="60da8b9f42644d3a-2" value="" style="whiteSpace=wrap;html=1;shadow=0;strokeWidth=8;fontSize=20;align=center;rounded=1;" parent="1" vertex="1">
          <mxGeometry x="316" y="405" width="280" height="430" as="geometry" />
        </mxCell>
        <mxCell id="60da8b9f42644d3a-3" value="Application" style="text;html=1;strokeColor=none;fillColor=none;align=center;verticalAlign=middle;whiteSpace=wrap;shadow=0;fontSize=27;fontStyle=1;rounded=1;" parent="1" vertex="1">
          <mxGeometry x="316" y="425" width="280" height="60" as="geometry" />
        </mxCell>
        <mxCell id="60da8b9f42644d3a-4" value="GBA DMI originated in&amp;nbsp;HK/Macau" style="text;html=1;strokeColor=none;fillColor=none;align=center;verticalAlign=middle;whiteSpace=wrap;shadow=0;fontSize=14;rounded=1;" parent="1" vertex="1">
          <mxGeometry x="316" y="725" width="280" height="90" as="geometry" />
        </mxCell>
        <mxCell id="60da8b9f42644d3a-6" value="" style="line;strokeWidth=2;html=1;shadow=0;fontSize=27;align=center;fillColor=none;rounded=1;" parent="1" vertex="1">
          <mxGeometry x="336" y="485" width="240" height="10" as="geometry" />
        </mxCell>
        <mxCell id="60da8b9f42644d3a-7" value="" style="line;strokeWidth=2;html=1;shadow=0;fontSize=27;align=center;fillColor=none;rounded=1;" parent="1" vertex="1">
          <mxGeometry x="336" y="705" width="240" height="10" as="geometry" />
        </mxCell>
        <mxCell id="60da8b9f42644d3a-8" value="Designated Medical Institutions&lt;br&gt;(DMI)" style="ellipse;whiteSpace=wrap;html=1;shadow=0;strokeWidth=6;fontSize=14;align=center;rounded=1;" parent="1" vertex="1">
          <mxGeometry x="259" y="545" width="115" height="115" as="geometry" />
        </mxCell>
        <mxCell id="60da8b9f42644d3a-9" value="" style="html=1;shadow=0;dashed=0;align=center;verticalAlign=middle;shape=mxgraph.arrows2.stylisedArrow;dy=0.6;dx=40;notch=15;feather=0.4;strokeWidth=1;fontSize=27;rounded=1;" parent="1" vertex="1">
          <mxGeometry x="406" y="573" width="100" height="60" as="geometry" />
        </mxCell>
        <mxCell id="60da8b9f42644d3a-17" value="" style="whiteSpace=wrap;html=1;shadow=0;strokeWidth=8;fontSize=20;align=center;rounded=1;" parent="1" vertex="1">
          <mxGeometry x="596" y="405" width="280" height="430" as="geometry" />
        </mxCell>
        <mxCell id="60da8b9f42644d3a-18" value="Joint Evaluation&lt;sup&gt;&lt;font style=&quot;font-size: 19px&quot;&gt;1&lt;/font&gt;&lt;/sup&gt;" style="text;html=1;strokeColor=none;fillColor=none;align=center;verticalAlign=middle;whiteSpace=wrap;shadow=0;fontSize=27;fontStyle=1;rounded=1;" parent="1" vertex="1">
          <mxGeometry x="596" y="425" width="280" height="60" as="geometry" />
        </mxCell>
        <mxCell id="60da8b9f42644d3a-19" value="GDMPA &amp;amp; GD Health Commission" style="text;html=1;strokeColor=none;fillColor=none;align=center;verticalAlign=middle;whiteSpace=wrap;shadow=0;fontSize=14;rounded=1;" parent="1" vertex="1">
          <mxGeometry x="596" y="725" width="280" height="90" as="geometry" />
        </mxCell>
        <mxCell id="60da8b9f42644d3a-20" value="" style="line;strokeWidth=2;html=1;shadow=0;fontSize=27;align=center;fillColor=none;rounded=1;" parent="1" vertex="1">
          <mxGeometry x="616" y="485" width="240" height="10" as="geometry" />
        </mxCell>
        <mxCell id="60da8b9f42644d3a-21" value="" style="line;strokeWidth=2;html=1;shadow=0;fontSize=27;align=center;fillColor=none;rounded=1;" parent="1" vertex="1">
          <mxGeometry x="616" y="705" width="240" height="10" as="geometry" />
        </mxCell>
        <mxCell id="60da8b9f42644d3a-22" value="Guangdong MPA&lt;br&gt;(GDMPA)" style="ellipse;whiteSpace=wrap;html=1;shadow=0;strokeWidth=6;fontSize=14;align=center;rounded=1;" parent="1" vertex="1">
          <mxGeometry x="539" y="545" width="115" height="115" as="geometry" />
        </mxCell>
        <mxCell id="60da8b9f42644d3a-23" value="" style="html=1;shadow=0;dashed=0;align=center;verticalAlign=middle;shape=mxgraph.arrows2.stylisedArrow;dy=0.6;dx=40;notch=15;feather=0.4;strokeWidth=1;fontSize=27;rounded=1;" parent="1" vertex="1">
          <mxGeometry x="686" y="573" width="100" height="60" as="geometry" />
        </mxCell>
        <mxCell id="60da8b9f42644d3a-24" value="" style="whiteSpace=wrap;html=1;shadow=0;strokeWidth=8;fontSize=20;align=center;rounded=1;" parent="1" vertex="1">
          <mxGeometry x="876" y="405" width="280" height="430" as="geometry" />
        </mxCell>
        <mxCell id="60da8b9f42644d3a-25" value="Approval for Usage" style="text;html=1;strokeColor=none;fillColor=none;align=center;verticalAlign=middle;whiteSpace=wrap;shadow=0;fontSize=27;fontStyle=1;rounded=1;" parent="1" vertex="1">
          <mxGeometry x="876" y="425" width="280" height="60" as="geometry" />
        </mxCell>
        <mxCell id="60da8b9f42644d3a-26" value="No similar device registered in China" style="text;html=1;strokeColor=none;fillColor=none;align=center;verticalAlign=middle;whiteSpace=wrap;shadow=0;fontSize=14;rounded=1;" parent="1" vertex="1">
          <mxGeometry x="876" y="725" width="280" height="90" as="geometry" />
        </mxCell>
        <mxCell id="60da8b9f42644d3a-27" value="" style="line;strokeWidth=2;html=1;shadow=0;fontSize=27;align=center;fillColor=none;rounded=1;" parent="1" vertex="1">
          <mxGeometry x="896" y="485" width="240" height="10" as="geometry" />
        </mxCell>
        <mxCell id="60da8b9f42644d3a-28" value="" style="line;strokeWidth=2;html=1;shadow=0;fontSize=27;align=center;fillColor=none;rounded=1;" parent="1" vertex="1">
          <mxGeometry x="896" y="705" width="240" height="10" as="geometry" />
        </mxCell>
        <mxCell id="60da8b9f42644d3a-29" value="GDMPA" style="ellipse;whiteSpace=wrap;html=1;shadow=0;strokeWidth=6;fontSize=14;align=center;rounded=1;" parent="1" vertex="1">
          <mxGeometry x="819" y="545" width="115" height="115" as="geometry" />
        </mxCell>
        <mxCell id="60da8b9f42644d3a-30" value="" style="html=1;shadow=0;dashed=0;align=center;verticalAlign=middle;shape=mxgraph.arrows2.stylisedArrow;dy=0.6;dx=40;notch=15;feather=0.4;strokeWidth=1;fontSize=27;rounded=1;" parent="1" vertex="1">
          <mxGeometry x="966" y="573" width="100" height="60" as="geometry" />
        </mxCell>
        <mxCell id="60da8b9f42644d3a-31" value="" style="whiteSpace=wrap;html=1;shadow=0;strokeWidth=8;fontSize=20;align=center;rounded=1;" parent="1" vertex="1">
          <mxGeometry x="1156" y="405" width="280" height="430" as="geometry" />
        </mxCell>
        <mxCell id="60da8b9f42644d3a-32" value="Import Permit" style="text;html=1;strokeColor=none;fillColor=none;align=center;verticalAlign=middle;whiteSpace=wrap;shadow=0;fontSize=27;fontStyle=1;rounded=1;" parent="1" vertex="1">
          <mxGeometry x="1156" y="425" width="280" height="60" as="geometry" />
        </mxCell>
        <mxCell id="60da8b9f42644d3a-33" value="Approved by GDMPA" style="text;html=1;strokeColor=none;fillColor=none;align=center;verticalAlign=middle;whiteSpace=wrap;shadow=0;fontSize=14;rounded=1;" parent="1" vertex="1">
          <mxGeometry x="1156" y="725" width="280" height="90" as="geometry" />
        </mxCell>
        <mxCell id="60da8b9f42644d3a-34" value="" style="line;strokeWidth=2;html=1;shadow=0;fontSize=27;align=center;fillColor=none;rounded=1;" parent="1" vertex="1">
          <mxGeometry x="1176" y="485" width="240" height="10" as="geometry" />
        </mxCell>
        <mxCell id="60da8b9f42644d3a-35" value="" style="line;strokeWidth=2;html=1;shadow=0;fontSize=27;align=center;fillColor=none;rounded=1;" parent="1" vertex="1">
          <mxGeometry x="1176" y="705" width="240" height="10" as="geometry" />
        </mxCell>
        <mxCell id="60da8b9f42644d3a-36" value="GDMPA" style="ellipse;whiteSpace=wrap;html=1;shadow=0;strokeWidth=6;fontSize=14;align=center;rounded=1;" parent="1" vertex="1">
          <mxGeometry x="1099" y="545" width="115" height="115" as="geometry" />
        </mxCell>
        <mxCell id="60da8b9f42644d3a-37" value="" style="html=1;shadow=0;dashed=0;align=center;verticalAlign=middle;shape=mxgraph.arrows2.stylisedArrow;dy=0.6;dx=40;notch=15;feather=0.4;strokeWidth=1;fontSize=27;rounded=1;" parent="1" vertex="1">
          <mxGeometry x="1246" y="573" width="100" height="60" as="geometry" />
        </mxCell>
        <mxCell id="60da8b9f42644d3a-38" value="Device used in GBA" style="ellipse;whiteSpace=wrap;html=1;shadow=0;strokeWidth=6;fontSize=14;align=center;rounded=1;" parent="1" vertex="1">
          <mxGeometry x="1379" y="545" width="115" height="115" as="geometry" />
        </mxCell>
        <mxCell id="JvyRWAL5f1hGU-I-xfa8-1" value="1.&amp;nbsp;assess the qualification of intended medical institution and the device for urgent clinical use:&lt;br&gt;&lt;div&gt;&lt;ul&gt;&lt;li&gt;The medical device is urgently needed for clinical use&lt;/li&gt;&lt;li&gt;No other treatments or devices are available for the target patients&lt;/li&gt;&lt;li&gt;The ability of the medical institution or hospital staff to operate the medical device&lt;/li&gt;&lt;/ul&gt;&lt;/div&gt;&lt;div&gt;&lt;span&gt;  &lt;/span&gt;&lt;/div&gt;&lt;div&gt;&lt;span&gt;  &lt;/span&gt;&lt;/div&gt;" style="text;html=1;strokeColor=none;fillColor=none;align=left;verticalAlign=middle;whiteSpace=wrap;rounded=1;" parent="1" vertex="1">
          <mxGeometry x="316" y="890" width="530" height="20" as="geometry" />
        </mxCell>
      </root>
    </mxGraphModel>
  </diagram>
  <diagram name="Copy of Page-1" id="Ao9ikuz0Df9lLaawb8TY">
    <mxGraphModel dx="1399" dy="771" grid="1" gridSize="10" guides="1" tooltips="1" connect="1" arrows="1" fold="1" page="1" pageScale="1.5" pageWidth="1169" pageHeight="826" math="0" shadow="0">
      <root>
        <mxCell id="qqYyA_lIVRvppWp5ifGM-0" />
        <mxCell id="qqYyA_lIVRvppWp5ifGM-1" parent="qqYyA_lIVRvppWp5ifGM-0" />
        <mxCell id="qqYyA_lIVRvppWp5ifGM-2" value="" style="whiteSpace=wrap;html=1;rounded=1;" vertex="1" parent="qqYyA_lIVRvppWp5ifGM-1">
          <mxGeometry x="220" y="290" width="1330" height="680" as="geometry" />
        </mxCell>
        <mxCell id="qqYyA_lIVRvppWp5ifGM-3" value="" style="whiteSpace=wrap;html=1;shadow=0;strokeWidth=8;fontSize=20;align=center;rounded=1;" vertex="1" parent="qqYyA_lIVRvppWp5ifGM-1">
          <mxGeometry x="316" y="405" width="280" height="430" as="geometry" />
        </mxCell>
        <mxCell id="qqYyA_lIVRvppWp5ifGM-4" value="Application" style="text;html=1;strokeColor=none;fillColor=none;align=center;verticalAlign=middle;whiteSpace=wrap;shadow=0;fontSize=27;fontStyle=1;rounded=1;" vertex="1" parent="qqYyA_lIVRvppWp5ifGM-1">
          <mxGeometry x="316" y="425" width="280" height="60" as="geometry" />
        </mxCell>
        <mxCell id="qqYyA_lIVRvppWp5ifGM-5" value="GBA DMI originated in&amp;nbsp;HK/Macau" style="text;html=1;strokeColor=none;fillColor=none;align=center;verticalAlign=middle;whiteSpace=wrap;shadow=0;fontSize=14;rounded=1;" vertex="1" parent="qqYyA_lIVRvppWp5ifGM-1">
          <mxGeometry x="316" y="725" width="280" height="90" as="geometry" />
        </mxCell>
        <mxCell id="qqYyA_lIVRvppWp5ifGM-6" value="" style="line;strokeWidth=2;html=1;shadow=0;fontSize=27;align=center;fillColor=none;rounded=1;" vertex="1" parent="qqYyA_lIVRvppWp5ifGM-1">
          <mxGeometry x="336" y="485" width="240" height="10" as="geometry" />
        </mxCell>
        <mxCell id="qqYyA_lIVRvppWp5ifGM-7" value="" style="line;strokeWidth=2;html=1;shadow=0;fontSize=27;align=center;fillColor=none;rounded=1;" vertex="1" parent="qqYyA_lIVRvppWp5ifGM-1">
          <mxGeometry x="336" y="705" width="240" height="10" as="geometry" />
        </mxCell>
        <mxCell id="qqYyA_lIVRvppWp5ifGM-8" value="Designated Medical Institutions&lt;br&gt;(DMI)" style="ellipse;whiteSpace=wrap;html=1;shadow=0;strokeWidth=6;fontSize=14;align=center;rounded=1;" vertex="1" parent="qqYyA_lIVRvppWp5ifGM-1">
          <mxGeometry x="259" y="545" width="115" height="115" as="geometry" />
        </mxCell>
        <mxCell id="qqYyA_lIVRvppWp5ifGM-9" value="" style="html=1;shadow=0;dashed=0;align=center;verticalAlign=middle;shape=mxgraph.arrows2.stylisedArrow;dy=0.6;dx=40;notch=15;feather=0.4;strokeWidth=1;fontSize=27;rounded=1;" vertex="1" parent="qqYyA_lIVRvppWp5ifGM-1">
          <mxGeometry x="406" y="573" width="100" height="60" as="geometry" />
        </mxCell>
        <mxCell id="qqYyA_lIVRvppWp5ifGM-10" value="" style="whiteSpace=wrap;html=1;shadow=0;strokeWidth=8;fontSize=20;align=center;rounded=1;" vertex="1" parent="qqYyA_lIVRvppWp5ifGM-1">
          <mxGeometry x="596" y="405" width="280" height="430" as="geometry" />
        </mxCell>
        <mxCell id="qqYyA_lIVRvppWp5ifGM-11" value="Joint Evaluation&lt;sup&gt;&lt;font style=&quot;font-size: 19px&quot;&gt;1&lt;/font&gt;&lt;/sup&gt;" style="text;html=1;strokeColor=none;fillColor=none;align=center;verticalAlign=middle;whiteSpace=wrap;shadow=0;fontSize=27;fontStyle=1;rounded=1;" vertex="1" parent="qqYyA_lIVRvppWp5ifGM-1">
          <mxGeometry x="596" y="425" width="280" height="60" as="geometry" />
        </mxCell>
        <mxCell id="qqYyA_lIVRvppWp5ifGM-12" value="GDMPA &amp;amp; GD Health Commission" style="text;html=1;strokeColor=none;fillColor=none;align=center;verticalAlign=middle;whiteSpace=wrap;shadow=0;fontSize=14;rounded=1;" vertex="1" parent="qqYyA_lIVRvppWp5ifGM-1">
          <mxGeometry x="596" y="725" width="280" height="90" as="geometry" />
        </mxCell>
        <mxCell id="qqYyA_lIVRvppWp5ifGM-13" value="" style="line;strokeWidth=2;html=1;shadow=0;fontSize=27;align=center;fillColor=none;rounded=1;" vertex="1" parent="qqYyA_lIVRvppWp5ifGM-1">
          <mxGeometry x="616" y="485" width="240" height="10" as="geometry" />
        </mxCell>
        <mxCell id="qqYyA_lIVRvppWp5ifGM-14" value="" style="line;strokeWidth=2;html=1;shadow=0;fontSize=27;align=center;fillColor=none;rounded=1;" vertex="1" parent="qqYyA_lIVRvppWp5ifGM-1">
          <mxGeometry x="616" y="705" width="240" height="10" as="geometry" />
        </mxCell>
        <mxCell id="qqYyA_lIVRvppWp5ifGM-15" value="Guangdong MPA&lt;br&gt;(GDMPA)" style="ellipse;whiteSpace=wrap;html=1;shadow=0;strokeWidth=6;fontSize=14;align=center;rounded=1;" vertex="1" parent="qqYyA_lIVRvppWp5ifGM-1">
          <mxGeometry x="539" y="545" width="115" height="115" as="geometry" />
        </mxCell>
        <mxCell id="qqYyA_lIVRvppWp5ifGM-16" value="" style="html=1;shadow=0;dashed=0;align=center;verticalAlign=middle;shape=mxgraph.arrows2.stylisedArrow;dy=0.6;dx=40;notch=15;feather=0.4;strokeWidth=1;fontSize=27;rounded=1;" vertex="1" parent="qqYyA_lIVRvppWp5ifGM-1">
          <mxGeometry x="686" y="573" width="100" height="60" as="geometry" />
        </mxCell>
        <mxCell id="qqYyA_lIVRvppWp5ifGM-17" value="" style="whiteSpace=wrap;html=1;shadow=0;strokeWidth=8;fontSize=20;align=center;rounded=1;" vertex="1" parent="qqYyA_lIVRvppWp5ifGM-1">
          <mxGeometry x="876" y="405" width="280" height="430" as="geometry" />
        </mxCell>
        <mxCell id="qqYyA_lIVRvppWp5ifGM-18" value="Approval for Usage" style="text;html=1;strokeColor=none;fillColor=none;align=center;verticalAlign=middle;whiteSpace=wrap;shadow=0;fontSize=27;fontStyle=1;rounded=1;" vertex="1" parent="qqYyA_lIVRvppWp5ifGM-1">
          <mxGeometry x="876" y="425" width="280" height="60" as="geometry" />
        </mxCell>
        <mxCell id="qqYyA_lIVRvppWp5ifGM-19" value="No similar device registered in China" style="text;html=1;strokeColor=none;fillColor=none;align=center;verticalAlign=middle;whiteSpace=wrap;shadow=0;fontSize=14;rounded=1;" vertex="1" parent="qqYyA_lIVRvppWp5ifGM-1">
          <mxGeometry x="876" y="725" width="280" height="90" as="geometry" />
        </mxCell>
        <mxCell id="qqYyA_lIVRvppWp5ifGM-20" value="" style="line;strokeWidth=2;html=1;shadow=0;fontSize=27;align=center;fillColor=none;rounded=1;" vertex="1" parent="qqYyA_lIVRvppWp5ifGM-1">
          <mxGeometry x="896" y="485" width="240" height="10" as="geometry" />
        </mxCell>
        <mxCell id="qqYyA_lIVRvppWp5ifGM-21" value="" style="line;strokeWidth=2;html=1;shadow=0;fontSize=27;align=center;fillColor=none;rounded=1;" vertex="1" parent="qqYyA_lIVRvppWp5ifGM-1">
          <mxGeometry x="896" y="705" width="240" height="10" as="geometry" />
        </mxCell>
        <mxCell id="qqYyA_lIVRvppWp5ifGM-22" value="GDMPA" style="ellipse;whiteSpace=wrap;html=1;shadow=0;strokeWidth=6;fontSize=14;align=center;rounded=1;" vertex="1" parent="qqYyA_lIVRvppWp5ifGM-1">
          <mxGeometry x="819" y="545" width="115" height="115" as="geometry" />
        </mxCell>
        <mxCell id="qqYyA_lIVRvppWp5ifGM-23" value="" style="html=1;shadow=0;dashed=0;align=center;verticalAlign=middle;shape=mxgraph.arrows2.stylisedArrow;dy=0.6;dx=40;notch=15;feather=0.4;strokeWidth=1;fontSize=27;rounded=1;" vertex="1" parent="qqYyA_lIVRvppWp5ifGM-1">
          <mxGeometry x="966" y="573" width="100" height="60" as="geometry" />
        </mxCell>
        <mxCell id="qqYyA_lIVRvppWp5ifGM-24" value="" style="whiteSpace=wrap;html=1;shadow=0;strokeWidth=8;fontSize=20;align=center;rounded=1;" vertex="1" parent="qqYyA_lIVRvppWp5ifGM-1">
          <mxGeometry x="1156" y="405" width="280" height="430" as="geometry" />
        </mxCell>
        <mxCell id="qqYyA_lIVRvppWp5ifGM-25" value="Import Permit" style="text;html=1;strokeColor=none;fillColor=none;align=center;verticalAlign=middle;whiteSpace=wrap;shadow=0;fontSize=27;fontStyle=1;rounded=1;" vertex="1" parent="qqYyA_lIVRvppWp5ifGM-1">
          <mxGeometry x="1156" y="425" width="280" height="60" as="geometry" />
        </mxCell>
        <mxCell id="qqYyA_lIVRvppWp5ifGM-26" value="Approved by GDMPA" style="text;html=1;strokeColor=none;fillColor=none;align=center;verticalAlign=middle;whiteSpace=wrap;shadow=0;fontSize=14;rounded=1;" vertex="1" parent="qqYyA_lIVRvppWp5ifGM-1">
          <mxGeometry x="1156" y="725" width="280" height="90" as="geometry" />
        </mxCell>
        <mxCell id="qqYyA_lIVRvppWp5ifGM-27" value="" style="line;strokeWidth=2;html=1;shadow=0;fontSize=27;align=center;fillColor=none;rounded=1;" vertex="1" parent="qqYyA_lIVRvppWp5ifGM-1">
          <mxGeometry x="1176" y="485" width="240" height="10" as="geometry" />
        </mxCell>
        <mxCell id="qqYyA_lIVRvppWp5ifGM-28" value="" style="line;strokeWidth=2;html=1;shadow=0;fontSize=27;align=center;fillColor=none;rounded=1;" vertex="1" parent="qqYyA_lIVRvppWp5ifGM-1">
          <mxGeometry x="1176" y="705" width="240" height="10" as="geometry" />
        </mxCell>
        <mxCell id="qqYyA_lIVRvppWp5ifGM-29" value="GDMPA" style="ellipse;whiteSpace=wrap;html=1;shadow=0;strokeWidth=6;fontSize=14;align=center;rounded=1;" vertex="1" parent="qqYyA_lIVRvppWp5ifGM-1">
          <mxGeometry x="1099" y="545" width="115" height="115" as="geometry" />
        </mxCell>
        <mxCell id="qqYyA_lIVRvppWp5ifGM-30" value="" style="html=1;shadow=0;dashed=0;align=center;verticalAlign=middle;shape=mxgraph.arrows2.stylisedArrow;dy=0.6;dx=40;notch=15;feather=0.4;strokeWidth=1;fontSize=27;rounded=1;" vertex="1" parent="qqYyA_lIVRvppWp5ifGM-1">
          <mxGeometry x="1246" y="573" width="100" height="60" as="geometry" />
        </mxCell>
        <mxCell id="qqYyA_lIVRvppWp5ifGM-31" value="Device used in GBA" style="ellipse;whiteSpace=wrap;html=1;shadow=0;strokeWidth=6;fontSize=14;align=center;rounded=1;" vertex="1" parent="qqYyA_lIVRvppWp5ifGM-1">
          <mxGeometry x="1379" y="545" width="115" height="115" as="geometry" />
        </mxCell>
        <mxCell id="qqYyA_lIVRvppWp5ifGM-32" value="1.&amp;nbsp;assess the qualification of intended medical institution and the device for urgent clinical use:&lt;br&gt;&lt;div&gt;&lt;ul&gt;&lt;li&gt;The medical device is urgently needed for clinical use&lt;/li&gt;&lt;li&gt;No other treatments or devices are available for the target patients&lt;/li&gt;&lt;li&gt;The ability of the medical institution or hospital staff to operate the medical device&lt;/li&gt;&lt;/ul&gt;&lt;/div&gt;&lt;div&gt;&lt;span&gt;  &lt;/span&gt;&lt;/div&gt;&lt;div&gt;&lt;span&gt;  &lt;/span&gt;&lt;/div&gt;" style="text;html=1;strokeColor=none;fillColor=none;align=left;verticalAlign=middle;whiteSpace=wrap;rounded=1;" vertex="1" parent="qqYyA_lIVRvppWp5ifGM-1">
          <mxGeometry x="316" y="890" width="530" height="20" as="geometry" />
        </mxCell>
      </root>
    </mxGraphModel>
  </diagram>
</mxfile>
